<?xml version="1.0" standalone="no"?>
<!DOCTYPE svg PUBLIC "-//W3C//DTD SVG 20010904//EN"
 "http://www.w3.org/TR/2001/REC-SVG-20010904/DTD/svg10.dtd">
<svg version="1.0" xmlns="http://www.w3.org/2000/svg"
 width="991.000000pt" height="1244.000000pt" viewBox="0 0 991.000000 1244.000000"
 preserveAspectRatio="xMidYMid meet">

<g transform="translate(0.000000,1244.000000) scale(0.100000,-0.100000)"
fill="#000000" stroke="none">
<path d="M3575 12394 c-100 -66 -178 -164 -216 -270 -33 -92 -37 -270 -10
-401 75 -362 249 -685 679 -1263 105 -140 189 -256 187 -258 -2 -2 -54 20
-116 49 -379 173 -650 242 -949 243 -294 1 -497 -63 -719 -229 -129 -96 -191
-130 -271 -151 -77 -19 -160 -14 -226 15 -61 27 -60 56 6 157 60 92 85 167 75
227 -21 126 -110 196 -235 184 -102 -9 -187 -71 -234 -171 -79 -168 -44 -375
88 -514 117 -124 302 -162 466 -96 23 9 43 14 46 11 3 -2 -4 -40 -15 -83 -79
-310 -66 -500 49 -741 64 -135 119 -211 218 -304 89 -83 161 -129 260 -167 61
-24 80 -26 217 -27 145 0 152 1 213 29 67 31 125 87 148 142 24 58 18 150 -15
220 -71 151 -211 234 -394 234 -152 0 -193 -25 -263 -161 -31 -59 -52 -89 -63
-89 -31 0 -107 56 -144 107 -176 240 -183 644 -17 923 113 191 307 323 563
383 80 18 121 21 312 21 246 0 334 -13 534 -80 473 -157 958 -577 1219 -1054
42 -77 105 -221 99 -226 -2 -2 -44 1 -93 7 -119 15 -381 6 -458 -16 -33 -9
-83 -29 -110 -43 l-51 -27 130 -7 c241 -13 433 -71 501 -151 15 -17 45 -70 66
-117 87 -192 116 -229 234 -298 142 -83 155 -109 272 -549 99 -368 121 -466
128 -551 l6 -67 -51 102 c-88 177 -247 370 -444 539 -319 274 -596 395 -997
435 -272 27 -566 -30 -835 -161 -368 -179 -638 -432 -1030 -964 -483 -654
-565 -757 -752 -936 -302 -291 -584 -415 -902 -397 -192 11 -333 66 -436 171
-106 108 -152 243 -141 414 11 178 76 314 210 439 67 62 234 173 261 173 6 0
16 -27 23 -60 16 -90 39 -130 86 -151 55 -25 156 -25 238 1 198 61 250 274 90
368 -43 25 -56 27 -152 27 -85 0 -119 -5 -175 -24 -155 -53 -284 -132 -406
-248 -175 -167 -269 -367 -269 -569 0 -110 14 -173 61 -271 70 -146 207 -261
384 -320 74 -26 92 -27 250 -28 147 0 181 3 255 23 256 70 510 226 742 454
146 144 211 225 566 710 274 373 476 623 514 637 7 2 9 -11 5 -38 -16 -124 37
-277 124 -355 97 -87 205 -122 358 -113 113 5 188 30 249 82 84 72 92 168 22
273 -68 102 -153 126 -292 82 -34 -11 -85 -23 -113 -26 l-50 -6 -29 54 -28 55
17 58 c71 244 254 425 520 514 151 50 257 65 465 65 297 0 536 -51 765 -163
161 -79 277 -163 416 -301 273 -273 466 -616 565 -1009 19 -74 32 -136 30
-138 -2 -2 -34 14 -70 36 -91 56 -204 112 -456 226 -118 53 -257 119 -308 147
-52 27 -95 48 -98 46 -13 -14 24 -148 66 -241 27 -59 52 -118 56 -131 l6 -24
-234 -4 c-211 -5 -243 -8 -333 -32 -195 -51 -429 -196 -584 -362 -77 -83 -117
-156 -242 -441 l-62 -142 -56 -11 c-123 -25 -366 -92 -452 -125 -340 -131
-552 -329 -713 -666 -105 -218 -146 -387 -146 -598 0 -221 38 -384 152 -653
57 -136 62 -106 -53 -295 -192 -314 -259 -519 -259 -787 0 -149 20 -266 70
-417 150 -451 466 -773 894 -908 54 -18 131 -37 171 -43 l73 -11 12 -61 c17
-89 73 -253 116 -337 93 -186 263 -387 434 -515 171 -128 400 -225 608 -259
155 -26 411 -17 547 19 177 46 319 110 470 211 209 140 304 251 469 545 81
143 69 145 169 -27 116 -201 195 -309 292 -401 197 -187 434 -302 715 -348
118 -20 387 -14 500 11 204 44 427 144 581 260 112 83 271 250 343 359 68 102
134 258 172 406 15 58 34 111 43 118 9 7 81 33 161 58 196 61 262 88 350 141
346 209 577 536 661 936 29 137 31 379 5 517 -38 193 -97 337 -215 523 -121
190 -126 229 -51 357 90 153 120 277 127 516 10 340 -55 567 -245 851 -241
358 -484 506 -1006 608 -65 13 -122 27 -126 32 -3 4 -19 46 -34 93 -67 203
-175 387 -310 528 -162 169 -329 265 -568 327 -138 36 -366 45 -508 21 -359
-62 -646 -242 -839 -525 -75 -110 -67 -115 -107 73 -32 150 -43 430 -25 580
56 439 277 690 585 662 69 -6 240 -57 273 -81 19 -14 24 -4 -66 -134 -17 -24
-31 -57 -31 -73 0 -33 29 -95 57 -120 48 -44 152 -61 234 -38 30 8 38 17 47
49 20 65 15 160 -12 216 -48 103 -172 191 -331 236 -116 33 -294 33 -385 0
-135 -48 -247 -134 -310 -239 -47 -77 -97 -139 -106 -130 -10 11 -50 155 -134
481 -93 360 -127 478 -181 632 l-40 114 50 62 c54 66 81 130 81 189 0 57 -42
128 -140 235 -50 55 -103 126 -119 158 -121 237 -18 463 272 597 55 25 59 29
32 29 -86 2 -255 -67 -347 -142 -73 -60 -152 -178 -179 -269 l-21 -70 -35 34
c-18 18 -75 91 -126 163 -138 194 -185 250 -407 485 -663 701 -1000 1156
-1147 1545 l-19 51 95 -1 c84 0 101 3 139 25 54 30 82 75 82 129 0 70 -25 110
-134 216 -127 123 -150 164 -151 261 0 69 3 78 65 203 36 72 63 131 60 131 -3
0 -23 -12 -45 -26z m1400 -5829 c39 -8 106 -33 150 -55 44 -22 85 -40 92 -40
7 0 24 -20 38 -44 21 -37 43 -53 138 -106 170 -94 274 -166 318 -222 86 -110
150 -285 183 -509 23 -147 40 -494 31 -624 -4 -60 -10 -913 -14 -1895 -7
-1592 -10 -1794 -24 -1867 -53 -263 -165 -477 -352 -672 -245 -254 -542 -381
-895 -381 -266 0 -506 71 -722 213 -316 208 -500 502 -565 901 l-8 49 -105 18
c-547 93 -962 488 -1067 1016 -24 121 -23 349 0 463 53 253 142 423 322 619
83 91 85 111 15 188 -64 70 -123 191 -156 318 -50 193 -44 495 13 715 79 306
339 627 628 777 158 81 319 123 474 123 l77 0 77 84 c65 71 82 97 106 164 162
437 456 684 916 766 106 19 243 19 330 1z m2380 -17 c411 -81 769 -405 827
-749 12 -72 14 -76 88 -157 95 -105 109 -114 146 -100 41 15 298 -31 400 -72
391 -156 687 -516 771 -937 24 -121 24 -358 0 -472 -40 -186 -107 -355 -178
-448 -23 -29 -45 -53 -49 -53 -4 0 -12 33 -17 73 -9 66 -10 58 -11 -98 -1
-156 1 -167 13 -132 8 21 24 51 35 68 l22 29 47 -77 c26 -43 73 -118 103 -168
104 -169 160 -299 199 -460 31 -124 31 -321 1 -453 -58 -252 -215 -531 -393
-696 -139 -128 -286 -202 -559 -281 -243 -71 -222 -56 -249 -172 -65 -278
-190 -511 -371 -694 -372 -374 -936 -464 -1439 -228 -260 121 -461 321 -595
591 -110 220 -106 191 -114 901 -10 924 -8 1304 7 1447 11 100 11 173 2 370
-8 163 -10 555 -6 1175 5 1055 1 999 90 1181 90 186 268 380 413 451 56 28 81
46 92 68 13 26 22 31 70 36 30 3 82 18 116 32 135 57 329 67 539 25z"/>
<path d="M5070 6465 c-137 -28 -248 -78 -327 -149 -28 -26 -83 -94 -123 -151
-42 -63 -86 -115 -108 -130 -24 -16 -75 -31 -147 -45 -298 -56 -348 -75 -535
-201 -155 -105 -258 -211 -354 -367 -71 -115 -98 -167 -110 -216 l-7 -28 73 5
73 5 -77 -11 c-63 -10 -86 -19 -126 -48 -175 -132 -169 -361 12 -454 49 -25
70 -29 130 -29 91 0 139 17 192 66 54 50 78 116 78 213 -1 101 -24 141 -124
210 l-79 56 14 40 c79 223 312 447 582 559 81 34 208 65 299 74 l61 5 6 -152
c6 -166 24 -250 78 -364 61 -129 184 -251 312 -311 106 -50 102 -51 117 15 7
32 15 64 17 71 3 6 -1 12 -10 12 -37 0 -156 73 -215 132 -106 106 -183 293
-182 441 1 88 29 202 71 286 32 65 59 102 123 165 106 106 170 139 328 172 67
14 130 30 140 35 17 9 17 12 -4 48 -16 28 -33 42 -59 50 -42 13 -35 13 -119
-4z"/>
<path d="M5243 5299 c-57 -11 -117 -43 -170 -92 -53 -49 -66 -73 -83 -148
l-13 -57 48 -76 c76 -122 128 -156 240 -156 69 0 117 15 167 53 147 112 137
366 -18 448 -57 31 -112 40 -171 28z"/>
<path d="M2785 4610 c-50 -15 -110 -74 -135 -131 -32 -76 -26 -207 14 -295 27
-60 29 -62 96 -88 64 -25 72 -26 132 -16 167 30 258 121 258 257 0 161 -105
271 -268 279 -37 2 -81 -1 -97 -6z"/>
<path d="M5475 4611 c-77 -20 -152 -87 -175 -156 -19 -58 -7 -158 29 -251 30
-79 33 -82 69 -89 20 -3 48 -17 62 -30 25 -24 25 -24 104 -9 92 18 140 40 184
85 68 69 92 210 51 295 -24 52 -86 110 -144 135 -48 21 -137 31 -180 20z"/>
<path d="M2672 4058 c-85 -229 -116 -453 -87 -646 20 -139 43 -218 102 -360
l47 -113 50 50 50 50 -32 68 c-17 37 -43 109 -58 158 -25 81 -28 105 -28 250
-1 169 12 252 69 459 14 49 24 90 22 91 -8 5 -107 45 -111 45 -2 0 -13 -24
-24 -52z"/>
<path d="M5309 4047 c-87 -119 -270 -258 -429 -327 -151 -66 -223 -81 -416
-87 l-172 -5 -11 -32 -11 -31 6 30 c28 135 -52 309 -161 351 -87 33 -204 2
-289 -76 -90 -83 -120 -195 -75 -287 41 -85 158 -163 243 -163 39 0 114 20
190 51 50 20 62 30 73 59 l13 35 -6 -34 -6 -33 193 5 c147 4 216 10 283 26 50
12 95 21 102 21 20 0 -11 -114 -55 -205 -69 -140 -194 -256 -358 -332 -113
-51 -131 -67 -136 -111 l-4 -37 -1 37 c-2 28 4 43 24 61 l26 24 -26 7 c-14 3
-26 10 -26 15 0 17 -100 119 -146 149 -24 17 -67 35 -94 42 -171 41 -339 -161
-286 -343 48 -165 219 -247 362 -174 62 31 141 110 153 151 5 17 10 23 10 14
1 -10 2 -18 4 -18 1 0 51 13 111 30 61 16 112 27 114 25 3 -3 0 -56 -7 -118
-16 -166 -13 -325 9 -471 11 -71 20 -134 20 -141 0 -8 -30 -20 -73 -29 -40 -9
-101 -30 -136 -46 -71 -34 -171 -124 -208 -188 -94 -159 -82 -391 27 -561 40
-61 126 -161 140 -161 3 0 19 27 35 60 l29 60 -43 36 c-115 99 -152 269 -91
427 44 116 169 218 307 248 67 15 59 23 165 -154 108 -180 287 -352 334 -321
9 5 25 26 37 47 l22 39 -107 101 c-125 119 -164 170 -223 286 -93 187 -137
358 -138 541 -1 217 42 346 193 575 114 172 160 276 160 363 0 40 24 99 53
131 12 13 72 61 132 106 113 85 252 221 301 294 l27 42 -24 25 c-14 13 -41 27
-60 29 -32 5 -37 1 -80 -58z"/>
<path d="M2792 2987 c-43 -44 -53 -61 -62 -106 -14 -76 -12 -149 5 -208 19
-65 92 -134 166 -158 174 -58 353 77 353 265 0 78 -21 127 -80 187 -54 54
-117 73 -239 73 l-91 0 -52 -53z"/>
<path d="M5133 1618 c-29 -5 -53 -13 -53 -18 0 -5 -16 -30 -36 -56 l-36 -47 4
-96 c5 -114 31 -183 88 -235 75 -67 180 -73 296 -16 97 47 135 118 137 250 1
62 -3 82 -23 120 -28 49 -73 84 -129 100 -44 12 -177 11 -248 -2z"/>
<path d="M4555 1364 c-11 -3 -60 -19 -109 -37 l-88 -32 -35 -69 -35 -70 17
-60 c50 -181 179 -302 297 -279 175 33 298 247 229 398 -41 91 -186 170 -276
149z"/>
<path d="M6639 6457 c-26 -58 36 -98 220 -141 145 -34 195 -61 285 -157 186
-198 236 -473 128 -703 -58 -121 -118 -187 -282 -308 -24 -19 -47 -45 -51 -58
-5 -19 -7 -20 -8 -6 -1 11 7 28 17 39 13 15 14 21 4 24 -7 3 -35 24 -63 46
-98 81 -122 97 -161 108 -73 19 -192 -13 -252 -69 -104 -98 -100 -295 8 -389
66 -59 92 -68 198 -68 91 0 99 2 140 30 54 38 130 178 123 229 -4 27 -4 28 3
6 11 -32 36 -30 120 11 117 57 259 212 321 351 45 98 61 190 61 339 l0 132 61
-7 c87 -10 233 -49 320 -85 237 -99 452 -302 555 -527 l35 -75 -74 -72 c-59
-57 -78 -82 -87 -117 -15 -55 -7 -147 18 -203 57 -127 232 -182 365 -116 92
46 137 115 145 219 8 118 -23 180 -121 241 -28 18 -67 46 -84 63 -18 16 -33
25 -33 20 0 -11 -66 -35 -91 -33 -8 0 7 7 33 15 26 8 50 19 53 24 3 5 -30 71
-73 147 -71 124 -92 150 -203 264 -132 134 -197 183 -324 246 -129 65 -232 92
-441 118 -74 9 -104 33 -174 134 -117 171 -221 252 -400 312 -69 23 -120 33
-187 37 -92 5 -92 5 -104 -21z"/>
<path d="M7112 4794 c-154 -76 -200 -305 -85 -415 72 -69 120 -89 209 -89 74
0 82 3 127 36 51 37 105 105 124 157 17 46 16 142 -3 185 -54 131 -237 193
-372 126z"/>
<path d="M8916 4608 c-81 -11 -135 -53 -176 -132 -32 -62 -35 -77 -35 -152 0
-77 2 -85 31 -121 55 -69 191 -122 314 -123 40 0 48 4 73 35 15 19 36 35 46
35 10 0 23 6 28 13 13 17 35 147 35 207 -1 85 -58 177 -135 217 -40 20 -121
30 -181 21z"/>
<path d="M7159 4213 c-95 -291 -326 -558 -593 -688 -127 -62 -225 -86 -378
-92 l-128 -6 0 -74 c0 -71 1 -73 23 -68 12 2 96 16 187 31 91 14 199 37 241
50 80 25 190 87 308 173 40 29 78 54 85 57 15 6 46 -72 72 -181 25 -102 46
-145 130 -266 130 -188 190 -354 201 -559 16 -303 -94 -603 -303 -820 -39 -41
-74 -84 -77 -95 -4 -19 -5 -19 -6 1 -1 16 -21 30 -91 63 -105 49 -163 62 -225
50 -175 -33 -258 -197 -183 -360 69 -151 216 -221 336 -160 56 29 127 112 168
198 l35 73 -20 34 c-12 18 -21 37 -21 42 0 5 9 -6 20 -23 11 -18 27 -33 35
-33 8 0 59 44 113 98 79 79 107 115 147 190 28 52 65 111 83 132 l32 39 71
-20 c140 -39 226 -103 274 -204 75 -159 53 -323 -59 -442 l-44 -48 35 -58 c40
-65 44 -65 110 5 89 98 133 217 133 362 -1 110 -11 161 -52 243 -56 115 -149
192 -321 267 -48 22 -92 47 -98 57 -7 14 -4 38 11 86 42 142 44 356 5 544 -9
39 -14 73 -12 75 2 2 26 -3 55 -10 l52 -14 2 71 1 72 6 -80 c6 -73 10 -85 48
-142 49 -71 86 -100 150 -119 60 -18 97 -18 162 2 112 33 186 141 185 269 -1
153 -106 255 -262 255 -86 0 -121 -18 -205 -103 l-77 -78 -50 16 c-197 66
-352 277 -404 555 -28 146 -25 163 51 262 63 83 117 189 157 309 20 59 36 112
36 118 0 7 -23 11 -64 11 l-64 0 -23 -67z"/>
<path d="M9173 4143 c-12 -2 -33 -19 -46 -36 l-25 -33 19 -59 c33 -105 67
-247 80 -334 23 -164 -7 -384 -77 -562 l-24 -64 47 -42 c27 -23 51 -38 54 -35
3 4 31 81 62 172 l57 165 0 245 0 244 -57 173 c-32 95 -60 172 -63 172 -3 -1
-15 -4 -27 -6z"/>
<path d="M8985 3040 c-115 -8 -156 -23 -207 -76 -136 -142 -94 -348 87 -435
131 -63 275 -15 339 113 31 62 34 134 10 241 -15 65 -21 76 -68 119 -28 26
-53 47 -56 46 -3 -1 -50 -4 -105 -8z"/>
<path d="M7265 1346 c-67 -31 -110 -68 -143 -124 -83 -143 36 -356 219 -394
140 -28 257 81 302 286 l16 68 -42 63 c-40 60 -45 63 -124 94 -101 38 -159 40
-228 7z"/>
</g>
</svg>
